# xmcd
# 
# Track frame offsets:
#     150
#     16511
#     33231
#     50315
#     66750
#     82404
#     94510
#     112062
#     129244
#     144253
#     158894
#     174177
#     189186
#     206158
#     220460
#     236805
# 
# Disc length: 3474
# 
# Revision: 2
# Processed by: cddbd v1.5.2PL0 Copyright (c) Steve Scherf et al.
# Submitted via: BonkEnc v1.0.8
# 
DISCID=d40d9010
DTITLE=Various Artist - DE VOLTA AOS BARES
DYEAR=2009
DGENRE=Country
TTITLE0=BRUNO E MARRONE - NAO TENTE ME IMPEDIR
TTITLE1=BRUNO E MARRONE - CAVALGADA
TTITLE2=BRUNO E MARRONE - FLASHBACK
TTITLE3=BRUNO E MARRONE - IR EMBORA
TTITLE4=BRUNO E MARRONE - SOU EU
TTITLE5=BRUNO E MARRONE - ONDE VOCE ESTA
TTITLE6=BRUNO E MARRONE - TE AMO TANTO
TTITLE7=BRUNO E MARRONE - VOCE
TTITLE8=BRUNO E MARRONE - QUEM TA BEBO,QUEM TA BAO
TTITLE9=BRUNO E MARRONE - AMOR NAO VAI FERIR
TTITLE10=BRUNO E MARRONE  - SOSINHO NO BAR
TTITLE11=BRUNO E MARRONE - ALINE PAREDES AZUIS
TTITLE12=BRUNO E MARRONE - QUNANDO VOCE QUISER
TTITLE13=BRUNO E MARRONE - FIEL ATE DEMAIS
TTITLE14=BRUNO E MARRONE - CHAMEGO BOM
TTITLE15=BRUNO E MARRONE - FAVO DE MEL
EXTD=DE VOLTA AOS BARES AO VIVO
EXTT0=
EXTT1=
EXTT2=
EXTT3=
EXTT4=
EXTT5=
EXTT6=
EXTT7=
EXTT8=
EXTT9=
EXTT10=
EXTT11=
EXTT12=
EXTT13=
EXTT14=
EXTT15=
PLAYORDER=
